<svg viewBox="0 0 100 100" xmlns="http://www.w3.org/2000/svg">
  <defs>
    <radialGradient id="bg" cx="28%" cy="18%" r="95%">
      <stop offset="0%" stop-color="#1C2C5C"/>
      <stop offset="50%" stop-color="#0F1737"/>
      <stop offset="100%" stop-color="#080B1E"/>
    </radialGradient>
    <linearGradient id="wingLeft" x1="20%" y1="0%" x2="70%" y2="100%">
      <stop offset="0%" stop-color="#FFFFFF"/>
      <stop offset="100%" stop-color="#5A67C7"/>
    </linearGradient>
    <linearGradient id="circleGrad" x1="10%" y1="0%" x2="100%" y2="100%">
      <stop offset="0%" stop-color="#D3C4F7"/>
      <stop offset="100%" stop-color="#8467E0"/>
    </linearGradient>
    <linearGradient id="wingRight" x1="30%" y1="0%" x2="100%" y2="100%">
      <stop offset="0%" stop-color="#6577FA"/>
      <stop offset="100%" stop-color="#2438A8"/>
    </linearGradient>
  </defs>

  <rect width="100" height="100" rx="22" fill="url(#bg)"/>

  <path d="M 24 22
           C 14 30, 12 46, 20 58
           C 26 66, 36 70, 46 74
           C 40 62, 38 50, 34 42
           C 31 35, 28 28, 24 22 Z"
        fill="url(#wingLeft)"/>

  <circle cx="66" cy="30" r="7.5" fill="url(#circleGrad)"/>

  <path d="M 60 40
           C 70 38, 80 42, 84 52
           C 87 60, 84 68, 76 73
           C 66 79, 54 77, 46 74
           C 54 68, 60 60, 62 52
           C 63 48, 62 44, 60 40 Z"
        fill="url(#wingRight)"/>
</svg>
